<svg width="90" height="90" viewBox="0 0 90 90" fill="none" xmlns="http://www.w3.org/2000/svg">
<g clip-path="url(#clip0)">
<path d="M63.75 39.9183V31.3308C59.3625 29.767 56.5988 29.332 55.2 25.9645C53.8013 22.5895 55.4625 20.2945 57.45 16.1208L51.3825 10.0495C47.2388 12.0183 44.9212 13.702 41.535 12.2995C38.16 10.9008 37.7213 8.11451 36.1688 3.74951H27.5812C26.0362 8.09201 25.5938 10.9008 22.215 12.2995H22.2113C18.8363 13.702 16.5487 12.037 12.3675 10.0495L6.30375 16.1208C8.28 20.2833 9.9525 22.5858 8.55375 25.9645C7.1475 29.3433 4.3425 29.7858 0 31.3308V39.9145C4.33125 41.4595 7.15125 41.9058 8.55 45.2808C9.96 48.6858 8.24625 51.0333 6.3 55.1245L12.3675 61.1958C16.5188 59.227 18.8325 57.5433 22.2113 58.9458H22.215C25.59 60.3445 26.0325 63.1383 27.5812 67.4958H36.165C37.71 63.1533 38.1525 60.352 41.5538 58.9383H41.5575C44.91 57.5433 47.1862 59.2045 51.3787 61.1958L57.4463 55.1245C55.4775 50.9733 53.7938 48.6633 55.1925 45.2808C56.595 41.9095 59.415 41.4595 63.75 39.9183ZM31.875 46.252C26.01 46.252 21.2512 41.4933 21.2512 35.6245C21.2512 29.7558 26.01 24.997 31.875 24.997C37.74 24.997 42.4987 29.7558 42.4987 35.6245C42.4987 41.4933 37.74 46.252 31.875 46.252ZM90 62.0208V57.982C87.9375 57.247 86.6363 57.0408 85.9762 55.4583C85.3163 53.8683 86.1 52.792 87.0338 50.8233L84.1763 47.9658C82.2262 48.8958 81.135 49.6833 79.545 49.027C77.955 48.3708 77.7487 47.0583 77.0175 45.0033H72.9825C72.255 47.047 72.045 48.367 70.455 49.027C68.865 49.687 67.7887 48.9033 65.8237 47.9658L62.9663 50.8233C63.8963 52.7845 64.6837 53.8683 64.0238 55.4583C63.3638 57.0483 62.0438 57.2545 60 57.982V62.0208C62.04 62.7445 63.3638 62.9583 64.0238 64.5445C64.6875 66.1458 63.8813 67.252 62.9663 69.1795L65.8237 72.037C67.7775 71.107 68.8688 70.3195 70.455 70.9758C72.045 71.632 72.2513 72.9483 72.9825 74.9995H77.0175C77.745 72.9558 77.955 71.6358 79.5525 70.972H79.5563C81.135 70.3158 82.2038 71.0995 84.1763 72.037L87.0338 69.1795C86.1075 67.2258 85.3163 66.1345 85.9762 64.5483C86.6363 62.962 87.96 62.7445 90 62.0208ZM75 64.9983C72.24 64.9983 70.0013 62.7595 70.0013 59.9995C70.0013 57.2395 72.24 55.0008 75 55.0008C77.76 55.0008 79.9987 57.2395 79.9987 59.9995C79.9987 62.7595 77.76 64.9983 75 64.9983ZM60 76.5145V73.4845C58.455 72.9333 57.4762 72.7795 56.9812 71.5908C56.4862 70.402 57.0712 69.592 57.7762 68.1145L55.6312 65.9733C54.1725 66.6708 53.355 67.2633 52.1588 66.7683C50.9625 66.2733 50.8125 65.2908 50.2612 63.7495H47.235C46.6875 65.2833 46.53 66.2733 45.3375 66.7683C44.1488 67.2633 43.3387 66.6783 41.865 65.9733L39.72 68.1145C40.4212 69.5883 41.01 70.3983 40.515 71.5908C40.02 72.7833 39.03 72.937 37.4963 73.4845V76.5145C39.0262 77.0583 40.02 77.2195 40.515 78.4083C41.0137 79.6083 40.41 80.4408 39.72 81.8845L41.865 84.0258C43.3275 83.3283 44.145 82.7358 45.3375 83.2308C46.53 83.7258 46.6838 84.712 47.235 86.2495H50.2612C50.8088 84.7158 50.9662 83.7258 52.1625 83.2308H52.1663C53.3475 82.7395 54.15 83.3245 55.6312 84.0295L57.7762 81.8883C57.0787 80.422 56.4862 79.6045 56.9812 78.412C57.4762 77.2195 58.47 77.0583 60 76.5145ZM48.75 78.7495C46.68 78.7495 45 77.0733 45 74.9995C45 72.9258 46.68 71.2495 48.75 71.2495C50.82 71.2495 52.5 72.9258 52.5 74.9995C52.5 77.0733 50.82 78.7495 48.75 78.7495Z" fill="black"/>
</g>
<defs>
<clipPath id="clip0">
<rect width="90" height="90" fill="white"/>
</clipPath>
</defs>
</svg>
