<svg width="90" height="90" viewBox="0 0 90 90" fill="none" xmlns="http://www.w3.org/2000/svg">
<path d="M54.5 5V24.75H74.25L54.5 5Z" fill="black"/>
<path d="M54.5 29.6875C51.7794 29.6875 49.5625 27.4706 49.5625 24.75V5H19.9375C17.2169 5 15 7.21694 15 9.9375V79.0625C15 81.788 17.2169 84 19.9375 84H69.3125C72.038 84 74.25 81.788 74.25 79.0625V29.6875H54.5ZM32.2812 20.1186V17.3438C32.2812 15.981 33.3872 14.875 34.75 14.875C36.1127 14.875 37.2188 15.981 37.2188 17.3438V20.1236C38.7642 20.4741 40.2059 21.1259 41.3959 22.0936C42.4574 22.9527 42.6154 24.5081 41.7514 25.5647C40.8873 26.6262 39.332 26.7793 38.2803 25.9202C37.3471 25.1647 36.093 24.75 34.75 24.75C32.0739 24.75 29.8125 26.4436 29.8125 28.4531C29.8125 30.4627 32.0739 32.1562 34.75 32.1562C40.1961 32.1562 44.625 36.0322 44.625 40.7969C44.625 44.8111 41.465 48.1636 37.2188 49.1314V51.9062C37.2188 53.269 36.1127 54.375 34.75 54.375C33.3872 54.375 32.2812 53.269 32.2812 51.9062V49.1264C30.7358 48.7759 29.2941 48.1241 28.1041 47.1564C27.0426 46.2923 26.8846 44.737 27.7486 43.6804C28.6127 42.6139 30.1631 42.4658 31.2197 43.3249C32.1529 44.0853 33.407 44.5 34.75 44.5C37.4261 44.5 39.6875 42.8064 39.6875 40.7969C39.6875 38.7873 37.4261 37.0938 34.75 37.0938C29.3039 37.0938 24.875 33.2178 24.875 28.4531C24.875 24.4389 28.035 21.0864 32.2812 20.1186ZM61.9062 74.125H27.3438C25.981 74.125 24.875 73.019 24.875 71.6562C24.875 70.2935 25.981 69.1875 27.3438 69.1875H61.9062C63.269 69.1875 64.375 70.2935 64.375 71.6562C64.375 73.019 63.269 74.125 61.9062 74.125ZM61.9062 64.25H27.3438C25.981 64.25 24.875 63.144 24.875 61.7812C24.875 60.4185 25.981 59.3125 27.3438 59.3125H61.9062C63.269 59.3125 64.375 60.4185 64.375 61.7812C64.375 63.144 63.269 64.25 61.9062 64.25ZM61.9062 54.375H52.0312C50.6685 54.375 49.5625 53.269 49.5625 51.9062C49.5625 50.5435 50.6685 49.4375 52.0312 49.4375H61.9062C63.269 49.4375 64.375 50.5435 64.375 51.9062C64.375 53.269 63.269 54.375 61.9062 54.375ZM61.9062 44.5H52.0312C50.6685 44.5 49.5625 43.394 49.5625 42.0312C49.5625 40.6685 50.6685 39.5625 52.0312 39.5625H61.9062C63.269 39.5625 64.375 40.6636 64.375 42.0312C64.375 43.394 63.269 44.5 61.9062 44.5Z" fill="black"/>
</svg>
