<svg width="90" height="90" viewBox="0 0 90 90" fill="none" xmlns="http://www.w3.org/2000/svg">
<path d="M45.615 26.8687C41.3025 27.585 39.2325 31.4925 40.9987 35.5988C42.8662 39.93 48.2025 42.705 52.6012 41.61C56.4975 40.6462 58.2975 36.915 56.61 33.0037C54.8438 28.8975 49.92 26.1525 45.615 26.8687ZM51.18 38.1112L51.57 38.97L50.7487 39.1388L50.385 38.3175C49.5375 38.4713 48.5775 38.4487 47.6888 38.2162L47.445 36.765C48.1763 36.8775 49.0875 36.9825 49.7812 36.84L50.25 36.6863C51.0787 36.2775 50.82 35.235 49.59 34.9875C48.6712 34.785 46.2412 34.935 45.3337 32.9175C44.8237 31.7775 45.2025 30.5888 46.6687 30.045L46.2637 29.1487L47.0775 28.98L47.4675 29.8387C48.0638 29.7412 48.7612 29.7038 49.5788 29.775L49.905 31.2113C49.2675 31.1325 48.5812 31.0575 47.985 31.1812L47.76 31.2413C46.6012 31.5488 46.9725 32.6475 48 32.9138C49.6987 33.3075 51.7275 33.435 52.53 35.2087C53.1788 36.6525 52.425 37.6388 51.18 38.1112ZM89.85 42.075L75.7275 11.25C52.56 26.265 26.9513 10.0575 8.41125 27.9525L22.53 58.7775C42.3975 41.9325 69.4762 57.885 89.85 42.075ZM79.3387 35.13C77.9325 37.0837 76.89 39.3188 76.2675 41.6588C62.7937 45.7612 46.6762 40.905 31.2 46.3125C28.6987 44.985 25.5637 44.1525 22.9913 44.2275L18.735 34.9013C20.355 32.9325 21.63 29.9325 22.1775 27.0487C34.9237 22.4512 50.8725 27.63 67.92 21.795C69.8737 23.0925 72.1575 24.0337 74.4075 24.4987L79.3387 35.13ZM90 56.2875C64.2862 71.0662 43.5037 50.9475 16.875 78.75L0 41.3625L5.2575 35.8763L19.5338 67.3988L19.5262 67.425C47.445 46.4437 61.5075 63.015 87.435 50.3138C88.5375 52.7437 89.5537 55.3088 90 56.2875Z" fill="black"/>
</svg>
