<svg width="304" height="304" viewBox="0 0 304 304" fill="none" xmlns="http://www.w3.org/2000/svg">
<path d="M253.334 278.651H50.6668C36.6756 278.651 25.3335 267.309 25.3335 253.317V114.605C25.761 106.104 30.3657 98.3645 37.6328 93.9328L138.966 33.1328C146.986 28.3242 157.002 28.3242 165.022 33.1328L266.355 93.9328C273.97 98.5279 278.637 106.762 278.667 115.656V253.317C278.667 267.309 267.325 278.651 253.334 278.651ZM50.6668 124.979V253.317H253.334V124.979L152 192.53L50.6668 124.979ZM152 54.8561L67.3362 105.649L152 162.092L236.652 105.649L152 54.8561Z" fill="#FEA75E"/>
</svg>
