<svg width="90" height="90" viewBox="0 0 90 90" fill="none" xmlns="http://www.w3.org/2000/svg">
<path d="M71.25 25.2525C71.25 40.8675 57.1875 51.4275 57.1875 63.75H49.7175C49.7213 55.9538 53.4563 49.4025 57.0975 43.0763C60.5175 37.1325 63.75 31.515 63.75 25.2525C63.75 13.5975 54.3113 7.5 44.985 7.5C35.6738 7.5 26.25 13.5975 26.25 25.2525C26.25 31.515 29.4825 37.1325 32.9025 43.0763C36.5438 49.4025 40.275 55.9538 40.2788 63.75H32.8125C32.8125 51.4275 18.75 40.8638 18.75 25.2525C18.75 8.96625 31.8675 0 44.985 0C58.1175 0 71.25 8.9775 71.25 25.2525ZM56.25 69.375C56.25 70.41 55.41 71.25 54.375 71.25H35.625C34.59 71.25 33.75 70.41 33.75 69.375C33.75 68.34 34.59 67.5 35.625 67.5H54.375C55.41 67.5 56.25 68.34 56.25 69.375ZM56.25 76.875C56.25 77.91 55.41 78.75 54.375 78.75H35.625C34.59 78.75 33.75 77.91 33.75 76.875C33.75 75.84 34.59 75 35.625 75H54.375C55.41 75 56.25 75.84 56.25 76.875ZM49.8713 88.7213C49.1588 89.5312 48.1275 90 47.0475 90H42.9488C41.8688 90 40.8413 89.5312 40.1288 88.7213L34.6875 82.5H55.3125L49.8713 88.7213Z" fill="black"/>
</svg>
