<svg width="147" height="147" viewBox="0 0 147 147" fill="none" xmlns="http://www.w3.org/2000/svg">
<path d="M12.2622 73.5122C12.2693 103.643 34.1799 129.299 63.9388 134.021V91.2134H48.3997V73.5122H63.9572V60.0372C63.2617 53.6521 65.4427 47.2885 69.9085 42.6724C74.3744 38.0562 80.6622 35.6659 87.0668 36.1497C91.6639 36.2239 96.2494 36.6333 100.787 37.3747V52.436H93.0448C90.3795 52.0869 87.6999 52.9672 85.7608 54.8289C83.8217 56.6905 82.8331 59.3321 83.0733 62.0094V73.5122H100.046L97.3323 91.2195H83.0733V134.021C115.257 128.935 137.825 99.542 134.428 67.1365C131.032 34.7309 102.859 10.657 70.32 12.3551C37.7812 14.0533 12.2674 40.929 12.2622 73.5122Z" fill="white"/>
</svg>
