<svg width="147" height="147" viewBox="0 0 147 147" fill="none" xmlns="http://www.w3.org/2000/svg">
<path d="M73.5122 128.876C58.4447 128.876 56.6685 128.797 50.7885 128.539C46.2031 128.388 41.6771 127.456 37.4053 125.783C30.0144 122.907 24.1701 117.06 21.2966 109.668C19.6876 105.381 18.8197 100.851 18.7302 96.2728C18.3872 90.405 18.3872 88.4818 18.3872 73.5306C18.3872 58.4203 18.4668 56.6563 18.7302 50.8069C18.8217 46.2347 19.6895 41.7113 21.2966 37.4299C24.1669 30.028 30.0207 24.1764 37.4237 21.3089C41.7029 19.6931 46.2275 18.823 50.8007 18.7364C56.6501 18.4056 58.5733 18.4056 73.5122 18.4056C88.7022 18.4056 90.4478 18.4853 96.236 18.7364C100.821 18.8238 105.358 19.6938 109.65 21.3089C117.051 24.1797 122.903 30.0301 125.777 37.4299C127.413 41.7737 128.285 46.3678 128.355 51.009C128.698 56.8768 128.698 58.7939 128.698 73.7389C128.698 88.6839 128.613 90.6439 128.355 96.4443C128.264 101.027 127.394 105.561 125.783 109.852C122.902 117.249 117.049 123.098 109.65 125.973C105.364 127.579 100.837 128.447 96.2605 128.539C90.4111 128.876 88.494 128.876 73.5122 128.876ZM73.304 28.1015C58.3222 28.1015 56.7665 28.175 50.9171 28.4384C47.4257 28.4846 43.9681 29.1289 40.6945 30.3433C35.8603 32.1931 32.0351 36.0027 30.1656 40.8293C28.9419 44.1386 28.2975 47.634 28.2607 51.1621C27.9361 57.0973 27.9361 58.653 27.9361 73.5306C27.9361 88.2306 27.9912 90.013 28.2607 95.9114C28.3155 99.4039 28.9595 102.862 30.1656 106.14C32.0378 110.964 35.8624 114.77 40.6945 116.62C43.9659 117.842 47.4249 118.487 50.9171 118.525C56.8461 118.868 58.408 118.868 73.304 118.868C88.3286 118.868 89.8843 118.794 95.6847 118.525C99.1784 118.482 102.639 117.838 105.913 116.62C110.718 114.754 114.519 110.956 116.387 106.152C117.609 102.84 118.253 99.3433 118.292 95.8134H118.359C118.623 89.9579 118.623 88.396 118.623 73.4326C118.623 58.4693 118.555 56.8951 118.292 51.0458C118.237 47.5573 117.593 44.1031 116.387 40.8293C114.523 36.0185 110.722 32.2132 105.913 30.3433C102.639 29.1228 99.1787 28.4783 95.6847 28.4384C89.7618 28.1015 88.2122 28.1015 73.304 28.1015ZM73.5122 101.822C62.0584 101.829 51.7281 94.9359 47.3392 84.3563C42.9503 73.7767 45.3673 61.595 53.4628 53.4925C61.5584 45.3899 73.738 42.9624 84.3214 47.3422C94.9047 51.7219 101.807 62.0462 101.81 73.5C101.793 89.1253 89.1375 101.792 73.5122 101.822ZM73.5122 55.1128C63.364 55.1128 55.1372 63.3395 55.1372 73.4878C55.1372 83.636 63.364 91.8628 73.5122 91.8628C83.6604 91.8628 91.8872 83.636 91.8872 73.4878C91.8636 63.3493 83.6507 55.1363 73.5122 55.1128ZM102.912 50.7457C99.2704 50.7321 96.3272 47.7725 96.334 44.1307C96.3407 40.4889 99.2949 37.5402 102.937 37.5402C106.579 37.5402 109.533 40.4888 109.539 44.1306C109.541 45.8877 108.843 47.573 107.599 48.8143C106.356 50.0556 104.669 50.7505 102.912 50.7457Z" fill="white"/>
</svg>
