<svg width="90" height="90" viewBox="0 0 90 90" fill="none" xmlns="http://www.w3.org/2000/svg">
<path fill-rule="evenodd" clip-rule="evenodd" d="M90 90H0V82.5H3.75C14.22 65.19 18.405 37.08 18.75 22.5H45C45.3563 39.69 50.5387 66.3112 60 82.5H77.325C75.2438 77.0813 69.8962 64.8075 67.9837 45.1725H63.2775C62.3438 54.4688 60.78 61.8488 59.1375 67.71C57.78 64.485 55.575 57.27 54.78 52.5337C55.6575 47.1712 56.1525 42.0262 56.25 37.6725H75C75.3825 51.1537 79.2188 70.695 86.1488 82.5H90V90ZM37.92 30H25.8412C23.9962 51.6937 19.485 66.3788 12.615 82.5H51.495C38.73 54.225 37.9163 30.0225 37.92 30ZM32.2425 60H40.0875L24.7613 78.75L29.0138 67.5H23.0138L36.0637 48.75L32.2425 60ZM69.8887 19.0688C70.7812 17.1112 72.735 15.75 75 15.75C77.265 15.75 79.2188 17.1112 80.1113 19.0688C80.6888 18.7687 81.3412 18.6 82.0312 18.6C84.36 18.6 86.25 20.5162 86.25 22.875C86.25 25.2337 84.36 27.15 82.0312 27.15C81.3412 27.15 80.6888 26.9812 80.1113 26.6812C79.2188 28.6388 77.265 30 75 30C72.735 30 70.7812 28.6388 69.8887 26.6812C69.3112 26.9812 68.6588 27.15 67.9688 27.15C65.64 27.15 63.75 25.2337 63.75 22.875C63.75 20.5162 65.64 18.6 67.9688 18.6C68.6588 18.6 69.3112 18.7687 69.8887 19.0688ZM33.75 18.75H30C30.7425 10.5675 36.6937 3.75 43.125 3.75C44.0475 3.75 44.9175 3.97125 45.6862 4.365C46.8713 1.78875 49.4775 0 52.5 0C55.5225 0 58.1287 1.78875 59.3138 4.365C60.0825 3.97125 60.9525 3.75 61.875 3.75C64.98 3.75 67.5 6.27 67.5 9.375C67.5 12.48 64.98 15 61.875 15C60.9525 15 60.0825 14.7787 59.3138 14.385C58.1287 16.9613 55.5225 18.75 52.5 18.75C43.7062 18.75 38.5425 7.68375 33.75 18.75Z" fill="black"/>
</svg>
