<svg width="304" height="304" viewBox="0 0 304 304" fill="none" xmlns="http://www.w3.org/2000/svg">
<path d="M152 265.983C136.001 252.336 121.172 237.376 107.667 221.257C87.4002 197.051 63.3335 161.002 63.3335 126.65C63.3155 90.772 84.9206 58.4193 118.067 44.6888C151.213 30.9582 189.368 38.5561 214.726 63.9371C231.401 80.5381 240.742 103.12 240.667 126.65C240.667 161.002 216.6 197.051 196.334 221.257C182.829 237.376 167.999 252.336 152 265.983ZM152 63.3164C117.04 63.3583 88.7087 91.6891 88.6669 126.65C88.6669 141.419 95.3422 166.993 127.11 205.006C134.94 214.354 143.248 223.292 152 231.783C160.753 223.302 169.065 214.377 176.903 205.044C208.658 166.98 215.334 141.406 215.334 126.65C215.292 91.6891 186.961 63.3583 152 63.3164ZM152 164.65C131.013 164.65 114 147.637 114 126.65C114 105.663 131.013 88.6497 152 88.6497C172.987 88.6497 190 105.663 190 126.65C190 136.728 185.997 146.393 178.87 153.52C171.744 160.646 162.078 164.65 152 164.65Z" fill="#FEA75E"/>
</svg>
