<svg width="304" height="304" viewBox="0 0 304 304" fill="none" xmlns="http://www.w3.org/2000/svg">
<path d="M222.874 266.073H222.52C173.858 264.876 127.422 245.446 92.4075 211.632C58.5814 176.65 39.1403 130.231 37.9394 81.5835C37.8677 74.7688 40.5434 68.212 45.3635 63.3941L79.7408 29.0421C84.6872 24.0973 92.7052 24.0973 97.6515 29.0421L148.318 79.7088C153.263 84.6551 153.263 92.6731 148.318 97.6195L128.102 117.797C131.852 131.806 138.758 144.77 148.293 155.696C159.199 165.234 172.147 172.145 186.141 175.899L206.407 155.709C211.354 150.764 219.372 150.764 224.318 155.709L274.985 206.375C279.93 211.322 279.93 219.34 274.985 224.286L240.608 258.651C235.92 263.387 229.538 266.058 222.874 266.073ZM88.6708 55.9208H88.6075L63.2742 81.3048C64.3071 123.341 81.0876 163.457 110.293 193.709C140.546 222.904 180.654 239.683 222.684 240.727L248.106 215.331L215.274 182.587L198.896 198.953C196.553 201.322 193.362 202.658 190.029 202.664C189.14 202.664 188.252 202.571 187.382 202.385C166.275 197.716 146.676 187.826 130.382 173.619C116.176 157.325 106.285 137.727 101.616 116.619C100.735 112.424 102.037 108.067 105.074 105.042L121.44 88.6641L88.6708 55.9208Z" fill="#FEA75E"/>
</svg>
