<svg width="70" height="70" viewBox="0 0 70 70" fill="none" xmlns="http://www.w3.org/2000/svg">
<path d="M35.0003 61.2499C22.1137 61.2499 11.667 50.8032 11.667 37.9166C11.667 25.0299 22.1137 14.5833 35.0003 14.5833C47.887 14.5833 58.3337 25.0299 58.3337 37.9166C58.3192 50.7972 47.881 61.2355 35.0003 61.2499ZM35.0003 20.4166C25.3353 20.4166 17.5003 28.2516 17.5003 37.9166C17.5003 47.5816 25.3353 55.4166 35.0003 55.4166C44.6653 55.4166 52.5003 47.5816 52.5003 37.9166C52.4891 28.2563 44.6606 20.4278 35.0003 20.4166ZM37.917 40.8333H32.0837V26.2499H37.917V40.8333ZM56.2716 22.4787L50.4382 16.6453L54.5624 12.5212L60.3957 18.3545L56.2745 22.4757L56.2716 22.4787ZM43.7503 11.6666H26.2503V5.83325H43.7503V11.6666Z" fill="#FEA75E"/>
</svg>
